# xmcd
#
# Track frame offsets:
#	150
#	22476
#	37958
#	55260
#	70457
#	88031
#	100600
#	112196
#	128359
#	142669
#	158353
#	172721
#	185212
#	200967
#	215180
#	230647
#	243960
#	257486
#	268882
#	285486
#	303657
#	320662
#
# Disc length: 4511 seconds
#
# Revision: 3
# Processed by: cddbd v1.5.2PL0 Copyright (c) Steve Scherf et al.
# Submitted via: EasyCDDAExtractor 11.5.0.1
#
DISCID=47119d16
DTITLE=Various Artist - nct 066
DYEAR=2004
DGENRE=Country
TTITLE0=Tim McGraw - Back When
TTITLE1=Shania Twain and Billy Currington - Party For Two
TTITLE2=Big and Rich - Holy Water
TTITLE3=Alan Jackson - Monday Morning Church
TTITLE4=Tracy Byrd - Revenge Of The Middle Aged Woman
TTITLE5=Shelly Fairchild - You Don't Lie Here Anymore
TTITLE6=Tracy Lawrence - Sawdust On Her Halo
TTITLE7=Miranda Lambert - Me And Charlie Talking
TTITLE8=Jeff Bates - Long Slow Kisses
TTITLE9=Jamie O'Neal - Trying To Find Atlantis
TTITLE10=Deryl Dodd - Let Me Be
TTITLE11=Malibu Storm - Long Way To Fall
TTITLE12=Donovan Chapman - Good Problem To Have
TTITLE13=Kerry Harvick - Cowgirls
TTITLE14=Chad Brock - That Changed Me
TTITLE15=Amy Dalley - Living Together
TTITLE16=Mark Chesnutt - I'm A Saint
TTITLE17=Willie Nelson - Midnight Rider
TTITLE18=Brad Johner - Free
TTITLE19=Jeffrey Steele - Once A Cowboy
TTITLE20=Jay Teter - Football Beer And You
TTITLE21=Uncle Kracker - Writing It Down
EXTD=
EXTT0=
EXTT1=
EXTT2=
EXTT3=
EXTT4=
EXTT5=
EXTT6=
EXTT7=
EXTT8=
EXTT9=
EXTT10=
EXTT11=
EXTT12=
EXTT13=
EXTT14=
EXTT15=
EXTT16=
EXTT17=
EXTT18=
EXTT19=
EXTT20=
EXTT21=
PLAYORDER=
